<svg version="1.2" xmlns="http://www.w3.org/2000/svg" viewBox="0 0 696 986" width="696" height="986">
	<title>logo_i2-eps</title>
	<defs>
		<clipPath clipPathUnits="userSpaceOnUse" id="cp1">
			<path d="m-147-106h1667v1667h-1667z"/>
		</clipPath>
	</defs>
	<style>
		.s0 { fill: #000000 } 
		.s1 { fill: #0097f6 } 
	</style>
	<g id="Page 1" clip-path="url(#cp1)">
		<path id="Path 6" fill-rule="evenodd" class="s0" d="m203.8 107.7c0 53.6-43.6 97.1-97.2 97.1-53.6 0-97.1-43.5-97.1-97.1 0-53.7 43.5-97.2 97.1-97.2 53.6 0 97.2 43.5 97.2 97.2zm-1.9-1.9c-1-52.4-44.5-94.2-97.1-93.2-52.7 1-94.5 44.4-93.5 96.9 1 52.4 44.5 94.2 97.1 93.1 52.7-1 94.5-44.3 93.5-96.8z"/>
		<path id="Path 7" class="s1" d="m201.9 105.8c1 52.5-40.8 95.8-93.5 96.8-52.6 1.1-96.1-40.7-97.1-93.1-1-52.5 40.8-95.9 93.5-96.9 52.6-1 96.1 40.8 97.1 93.2z"/>
		<path id="Path 10" fill-rule="evenodd" class="s0" d="m456.6 346.7c-16.7-6.3-99.5-38.3-93.1 5.5q2.3 16 14.3 38.1 11.8 21.8 25.4 41.9 28.6 42.2 62.9 87.6c44.1 58.5 87.1 115.2 129.2 175.8q38.3 55.1 65 105.3 8.2 15.4 16.6 34.9c8.4 19.8 14.8 41 13.6 62.3-3.8 66.7-95 64.7-140 60.2q-53.3-5.4-108.7-19.1-86-21.2-165.3-50.6-1.1-0.3-0.4-1.3l29.6-46.6c0.3-0.5 0.8-0.7 1.3-0.5q77.7 24.8 155.9 50c17.7 5.7 55 15.2 52.9-17.9q-0.7-12.4-3.3-20.3c-10-30.7-25.1-58.6-41.4-86q-22-36.7-44.5-69.5c-75.5-110-164.3-222-250-326.8-11.7-14.3-25.8-38.2-17.9-55.7 11.5-25.5 32.8-42.5 59-50.9q26.8-8.5 56-8.9 43-0.6 85.7 7.4 50.3 9.3 100.7 25.2 70.3 22 135.2 50.9c0.6 0.3 0.8 1 0.4 1.5l-31.6 46c-0.6 0.8-1.6 1.1-2.5 0.8q-52.6-19.7-105-39.3zm164.8 391.6c-51-78.7-109.6-154.5-166.2-229.7-26.1-34.8-52.3-71.2-74.4-108.8q-11.3-19.4-17-37.1-2.2-7-2.2-15.5c-0.3-36 67.1-12.7 84.9-6.2q53.3 19.6 115.1 42.9c0.5 0.2 1 0 1.3-0.4l29.8-43.4q0.8-1.2-0.4-1.7c-70.6-30.9-146.2-57.4-220.5-72.6-41.5-8.5-86.3-13.5-127.6-7.2-34.6 5.4-65.6 20.6-82.2 52.7q-6.2 12-1.5 26.3 5 15.2 14.7 27.2c66.3 81.8 131.4 162.9 194.3 247.8 39 52.6 76.7 106.7 109.7 163.4 11.5 19.9 66.5 114.9 20.4 121.3q-13.9 1.9-30.2-3.3-77.1-24.4-161.2-51.4c-0.6-0.2-1.3 0-1.7 0.6l-27.6 43.3c-0.3 0.4-0.1 1 0.4 1.1 71.4 26 144.9 47.9 219.5 61.6 36.8 6.8 76 10.9 112.7 7.7 39-3.3 78.7-19.5 77.3-65.6-0.5-17.6-5.4-34.9-12.3-51.2-14.9-35.7-34.5-70-55.1-101.8z"/>
		<path id="Path 11" class="s1" d="m455.2 508.6c56.6 75.2 115.2 151 166.2 229.7 20.6 31.8 40.2 66.1 55.1 101.8 6.9 16.3 11.8 33.6 12.3 51.2 1.4 46.1-38.3 62.3-77.3 65.6-36.7 3.2-75.9-0.9-112.7-7.7-74.6-13.7-148.1-35.6-219.5-61.6-0.5-0.1-0.7-0.7-0.4-1.1l27.6-43.3c0.4-0.6 1.1-0.8 1.7-0.6q84.1 27 161.2 51.4 16.3 5.2 30.2 3.3c46.1-6.4-8.9-101.4-20.4-121.3-33-56.7-70.7-110.8-109.7-163.4-62.9-84.9-128-166-194.3-247.8q-9.7-12-14.7-27.2-4.7-14.3 1.5-26.3c16.6-32.1 47.6-47.3 82.2-52.7 41.3-6.3 86.1-1.3 127.6 7.2 74.3 15.2 149.9 41.7 220.5 72.6q1.2 0.5 0.4 1.7l-29.8 43.4c-0.3 0.4-0.8 0.6-1.3 0.4q-61.8-23.3-115.1-42.9c-17.8-6.5-85.2-29.8-84.9 6.2q0 8.5 2.2 15.5 5.7 17.7 17 37.1c22.1 37.6 48.3 74 74.4 108.8z"/>
	</g>
</svg>