<svg version="1.2" xmlns="http://www.w3.org/2000/svg" viewBox="0 0 1285 986" width="1285" height="986">
	<title>logo_i2-eps</title>
	<defs>
		<clipPath clipPathUnits="userSpaceOnUse" id="cp1">
			<path d="m-147-106h1667v1667h-1667z"/>
		</clipPath>
	</defs>
	<style>
		.s0 { fill: #000000 } 
	</style>
	<g id="Page 1" clip-path="url(#cp1)">
		<path id="Path 6" fill-rule="evenodd" class="s0" d="m203.8 107.7c0 53.6-43.6 97.1-97.2 97.1-53.6 0-97.1-43.5-97.1-97.1 0-53.7 43.5-97.2 97.1-97.2 53.6 0 97.2 43.5 97.2 97.2zm-1.9-1.9c-1-52.4-44.5-94.2-97.1-93.2-52.7 1-94.5 44.4-93.5 96.9 1 52.4 44.5 94.2 97.1 93.1 52.7-1 94.5-44.3 93.5-96.8z"/>
		<path id="Path 8" fill-rule="evenodd" class="s0" d="m970.6 830.9c4.8-0.7 9.7-1 14.4-2q82.5-17.2 167.5-36 43.6-9.7 83.1-17 7.8-1.4 16.2-1.8c7-0.2 12.8 10.9 13.9 16.6q6.4 32.9 13.5 66.4c2.8 13.5-3.4 25.5-17.5 28.4q-216.3 45.7-432 90.9-1.8 0.4-2.7-1.1c-24.9-39.5-36.3-88.6-13.4-131.6q9.2-17.2 18.7-33.1c47.5-79.3 92.8-157.5 124.1-239.9 10.9-28.6 19.3-58.7 22.7-89.6 4.2-38.3-4.3-76.2-39.6-96q-64.1-36-128.1 2.9c-29 17.6-53 43.4-75.2 69.9q-3.5 4.2-7.8 7.6c-1.7 1.3-4.1 0-4-2.1q0.1-2.2-1-4-16.3-26.4-25.9-53.4c-5.6-15.6-9.2-32.5-6.5-48.8 1.8-11.2 9.5-20.2 18.1-28.2q12.7-11.6 25.2-20.8 56.2-41.1 119.9-63c35.8-12.2 70.9-18.5 107.2-17.8 53.7 1.1 102.7 21.4 141.1 58.9 24.3 23.7 36.9 58 39.5 92.2 1.5 19.8 0.9 40.8-1.9 60.6-7.3 53.1-25.1 107.3-46.2 156.6-34.4 80.1-78.4 157.7-124.7 232.9q-1.6 2.6 1.4 2.3zm-140 143.3c143.9-30.2 287.5-60.5 431-90.6q11.9-2.5 15.3-12.8 1.9-5.9 0.4-12.9-7.2-35-13.4-66.4-0.7-3.5-2.5-6.7c-2.5-4.4-5-9.5-11-8.9q-14.2 1.6-27.6 4.2-31 6.2-61.3 12.8-71.6 15.5-143.3 31.1-24 5.3-48.2 9.1-5.4 0.8-2.7-3.9 0.5-0.8 0.7-1.8 0.2-1.1 0.7-2 43.7-70.2 79.1-137.2c29-54.8 54.1-111.6 72.7-171q15.9-50.4 20.1-98.9 2.3-26.8-2.5-55.2-6.5-38.2-27.4-64.7-11.6-14.7-30.6-28.8-40.2-29.9-89.6-37.7c-43.3-6.9-88.3-0.7-130.6 13.5q-67.6 22.5-124.9 64.7-15.7 11.7-29.8 25.7c-11.5 11.4-14.9 24.4-12.8 40.7 3.7 28.8 17.6 57.6 33 82.4 0.6 0.8 0.6 1.8 0.4 2.7q-0.3 0.8 0.2 1.4 0.3 0.5 0.9 0.6c0.8 0.1 1.5-0.2 2-0.7 34.7-39.3 70.3-82 124.3-94.3 27.2-6.1 52.7-1.8 78.1 9.9q41.1 19 48.5 61.3 3.5 20.2 1.4 39.4-3.4 32.3-12.7 62.1c-14.1 45.3-33.9 89.1-55.8 131.1-26.3 50.5-55.6 100.4-85 149.8q-10.2 17.3-16.6 31.8c-16.9 38.6-5 83.6 16.9 119.1q0.9 1.5 2.6 1.1z"/>
		<path id="Path 10" fill-rule="evenodd" class="s0" d="m456.6 346.7c-16.7-6.3-99.5-38.3-93.1 5.5q2.3 16 14.3 38.1 11.8 21.8 25.4 41.9 28.6 42.2 62.9 87.6c44.1 58.5 87.1 115.2 129.2 175.8q38.3 55.1 65 105.3 8.2 15.4 16.6 34.9c8.4 19.8 14.8 41 13.6 62.3-3.8 66.7-95 64.7-140 60.2q-53.3-5.4-108.7-19.1-86-21.2-165.3-50.6-1.1-0.3-0.4-1.3l29.6-46.6c0.3-0.5 0.8-0.7 1.3-0.5q77.7 24.8 155.9 50c17.7 5.7 55 15.2 52.9-17.9q-0.7-12.4-3.3-20.3c-10-30.7-25.1-58.6-41.4-86q-22-36.7-44.5-69.5c-75.5-110-164.3-222-250-326.8-11.7-14.3-25.8-38.2-17.9-55.7 11.5-25.5 32.8-42.5 59-50.9q26.8-8.5 56-8.9 43-0.6 85.7 7.4 50.3 9.3 100.7 25.2 70.3 22 135.2 50.9c0.6 0.3 0.8 1 0.4 1.5l-31.6 46c-0.6 0.8-1.6 1.1-2.5 0.8q-52.6-19.7-105-39.3zm164.8 391.6c-51-78.7-109.6-154.5-166.2-229.7-26.1-34.8-52.3-71.2-74.4-108.8q-11.3-19.4-17-37.1-2.2-7-2.2-15.5c-0.3-36 67.1-12.7 84.9-6.2q53.3 19.6 115.1 42.9c0.5 0.2 1 0 1.3-0.4l29.8-43.4q0.8-1.2-0.4-1.7c-70.6-30.9-146.2-57.4-220.5-72.6-41.5-8.5-86.3-13.5-127.6-7.2-34.6 5.4-65.6 20.6-82.2 52.7q-6.2 12-1.5 26.3 5 15.2 14.7 27.2c66.3 81.8 131.4 162.9 194.3 247.8 39 52.6 76.7 106.7 109.7 163.4 11.5 19.9 66.5 114.9 20.4 121.3q-13.9 1.9-30.2-3.3-77.1-24.4-161.2-51.4c-0.6-0.2-1.3 0-1.7 0.6l-27.6 43.3c-0.3 0.4-0.1 1 0.4 1.1 71.4 26 144.9 47.9 219.5 61.6 36.8 6.8 76 10.9 112.7 7.7 39-3.3 78.7-19.5 77.3-65.6-0.5-17.6-5.4-34.9-12.3-51.2-14.9-35.7-34.5-70-55.1-101.8z"/>
	</g>
</svg>