<svg version="1.2" xmlns="http://www.w3.org/2000/svg" viewBox="0 0 603 794" width="603" height="794">
	<title>logo_i2-eps</title>
	<defs>
		<clipPath clipPathUnits="userSpaceOnUse" id="cp1">
			<path d="m-833-296h1667v1667h-1667z"/>
		</clipPath>
	</defs>
	<style>
		.s0 { fill: #000000 } 
		.s1 { fill: #0097f6 } 
	</style>
	<g id="Page 1" clip-path="url(#cp1)">
		<path id="Path 8" fill-rule="evenodd" class="s0" d="m284.6 640.9c4.8-0.7 9.7-1 14.4-2q82.5-17.2 167.5-36 43.6-9.7 83.1-17 7.8-1.4 16.2-1.8c7-0.2 12.8 10.9 13.9 16.6q6.4 32.9 13.5 66.4c2.8 13.5-3.4 25.5-17.5 28.4q-216.3 45.7-432 90.9-1.8 0.4-2.7-1.1c-24.9-39.5-36.3-88.6-13.4-131.6q9.2-17.2 18.7-33.1c47.5-79.3 92.8-157.5 124.1-239.9 10.9-28.6 19.3-58.7 22.7-89.6 4.2-38.3-4.3-76.2-39.6-96q-64.1-36-128.1 2.9c-29 17.6-53 43.4-75.2 69.9q-3.5 4.2-7.8 7.6c-1.7 1.3-4.1 0-4-2.1q0.1-2.2-1-4-16.3-26.4-25.9-53.4c-5.6-15.6-9.2-32.5-6.5-48.8 1.8-11.2 9.5-20.2 18.1-28.2q12.7-11.6 25.2-20.8 56.2-41.1 119.9-63c35.8-12.2 70.9-18.5 107.2-17.8 53.7 1.1 102.7 21.4 141.1 58.9 24.3 23.7 36.9 58 39.5 92.2 1.5 19.8 0.9 40.8-1.9 60.6-7.3 53.1-25.1 107.3-46.2 156.6-34.4 80.1-78.4 157.7-124.7 232.9q-1.6 2.6 1.4 2.3zm-140 143.3c143.9-30.2 287.5-60.5 431-90.6q11.9-2.5 15.3-12.8 1.9-5.9 0.4-12.9-7.2-35-13.4-66.4-0.7-3.5-2.5-6.7c-2.5-4.4-5-9.5-11-8.9q-14.2 1.6-27.6 4.2-31 6.2-61.3 12.8-71.6 15.5-143.3 31.1-24 5.3-48.2 9.1-5.4 0.8-2.7-3.9 0.5-0.8 0.7-1.8 0.2-1.1 0.7-2 43.7-70.2 79.1-137.2c29-54.8 54.1-111.6 72.7-171q15.9-50.4 20.1-98.9 2.3-26.8-2.5-55.2-6.5-38.2-27.4-64.7-11.6-14.7-30.6-28.8-40.2-29.9-89.6-37.7c-43.3-6.9-88.3-0.7-130.6 13.5q-67.6 22.5-124.9 64.7-15.7 11.7-29.8 25.7c-11.5 11.4-14.9 24.4-12.8 40.7 3.7 28.8 17.6 57.6 33 82.4 0.6 0.8 0.6 1.8 0.4 2.7q-0.3 0.8 0.2 1.4 0.3 0.5 0.9 0.6c0.8 0.1 1.5-0.2 2-0.7 34.7-39.3 70.3-82 124.3-94.3 27.2-6.1 52.7-1.8 78.1 9.9q41.1 19 48.5 61.3 3.5 20.2 1.4 39.4-3.4 32.3-12.7 62.1c-14.1 45.3-33.9 89.1-55.8 131.1-26.3 50.5-55.6 100.4-85 149.8q-10.2 17.3-16.6 31.8c-16.9 38.6-5 83.6 16.9 119.1q0.9 1.5 2.6 1.1z"/>
		<path id="Path 9" class="s1" d="m575.6 693.6c-143.5 30.1-287.1 60.4-431 90.6q-1.7 0.4-2.6-1.1c-21.9-35.5-33.8-80.5-16.9-119.1q6.4-14.5 16.6-31.8c29.4-49.4 58.7-99.3 85-149.8 21.9-42 41.7-85.8 55.8-131.1q9.3-29.8 12.7-62.1 2.1-19.2-1.4-39.4-7.4-42.3-48.5-61.3c-25.4-11.7-50.9-16-78.1-9.9-54 12.3-89.6 55-124.3 94.3-0.5 0.5-1.2 0.8-2 0.7q-0.6-0.1-0.9-0.6-0.5-0.6-0.2-1.4c0.2-0.9 0.2-1.9-0.4-2.7-15.4-24.8-29.3-53.6-33-82.4-2.1-16.3 1.3-29.3 12.8-40.7q14.1-14 29.8-25.7 57.3-42.2 124.9-64.7c42.3-14.2 87.3-20.4 130.6-13.5q49.4 7.8 89.6 37.7 19 14.1 30.6 28.8 20.9 26.5 27.4 64.7 4.8 28.4 2.5 55.2-4.2 48.5-20.1 98.9c-18.6 59.4-43.7 116.2-72.7 171q-35.4 67-79.1 137.2-0.5 0.9-0.7 2-0.2 1-0.7 1.8-2.7 4.7 2.7 3.9 24.2-3.8 48.2-9.1 71.7-15.6 143.3-31.1 30.3-6.6 61.3-12.8 13.4-2.6 27.6-4.2c6-0.6 8.5 4.5 11 8.9q1.8 3.2 2.5 6.7 6.2 31.4 13.4 66.4 1.5 7-0.4 12.9-3.4 10.3-15.3 12.8z"/>
	</g>
</svg>