<?xml version="1.0" standalone="no"?>
<!DOCTYPE svg PUBLIC "-//W3C//DTD SVG 20010904//EN"
 "http://www.w3.org/TR/2001/REC-SVG-20010904/DTD/svg10.dtd">
<svg version="1.0" xmlns="http://www.w3.org/2000/svg"
 width="1285.000000pt" height="1285.000000pt" viewBox="0 0 1285.000000 1285.000000"
 preserveAspectRatio="xMidYMid meet">
<metadata>
Created by potrace 1.14, written by Peter Selinger 2001-2017
</metadata>
<g transform="translate(0.000000,1285.000000) scale(0.100000,-0.100000)"
fill="#000000" stroke="none">
<path d="M970 11248 c0 -4 -8 -5 -18 -3 -18 3 -168 -26 -179 -35 -2 -2 -6 -3
-10 -5 -31 -8 -127 -49 -133 -55 -3 -3 -21 -14 -42 -23 -93 -43 -318 -251
-318 -294 0 -6 -4 -13 -8 -15 -8 -3 -72 -104 -72 -114 0 -3 -9 -26 -21 -51
-11 -25 -21 -54 -22 -64 -1 -10 -6 -19 -11 -19 -5 0 -6 -3 -3 -6 3 -4 2 -14
-3 -23 -8 -16 -16 -58 -24 -136 -2 -16 -5 -30 -6 -30 -1 0 -3 -35 -3 -78 -1
-42 0 -77 3 -77 3 0 5 -19 4 -42 -1 -55 5 -79 20 -71 7 4 7 1 -1 -7 -8 -9 -9
-19 -2 -32 5 -10 7 -18 5 -18 -3 0 1 -18 9 -39 7 -22 11 -42 8 -45 -4 -3 -1
-6 6 -6 7 0 9 -4 6 -10 -3 -5 -1 -10 4 -10 6 0 10 -3 9 -7 -4 -16 24 -83 34
-83 6 0 9 -3 6 -6 -7 -6 21 -57 67 -123 43 -62 151 -172 215 -218 71 -52 150
-97 150 -86 0 4 4 4 8 -2 12 -17 72 -46 81 -40 5 3 12 1 15 -4 4 -5 48 -19 99
-31 122 -29 286 -32 427 -7 8 1 21 6 28 10 6 5 12 6 12 3 0 -7 95 27 157 55
24 10 45 19 47 19 13 0 158 104 200 144 28 25 53 46 58 46 4 0 8 3 8 8 0 4 14
23 30 42 16 19 34 40 40 47 5 7 10 17 10 23 0 5 5 10 10 10 6 0 10 5 10 11 0
6 7 17 15 26 8 8 13 19 10 24 -4 5 -1 9 4 9 6 0 11 7 11 15 0 8 4 15 9 15 8 0
16 20 19 43 0 4 7 18 15 30 7 12 18 36 22 52 4 17 9 35 11 40 43 142 50 314
19 490 -3 17 -8 37 -12 45 -3 8 -7 20 -8 25 -12 48 -39 115 -48 115 -6 0 -7 3
-4 6 7 8 -38 93 -85 162 -63 92 -266 272 -306 272 -6 0 -12 4 -14 8 -4 9 -112
63 -133 66 -8 1 -17 5 -21 8 -3 4 -12 4 -20 1 -8 -3 -14 -1 -14 5 0 10 -105
33 -160 36 -17 0 -30 3 -30 6 0 3 -43 5 -95 5 -52 0 -95 -3 -95 -7z"/>
<path d="M9390 9083 c-8 -1 -45 -5 -83 -8 -47 -5 -65 -10 -60 -18 5 -9 3 -9
-8 -1 -9 8 -32 9 -69 4 -167 -25 -264 -45 -370 -75 -30 -9 -66 -18 -79 -21
-13 -3 -39 -11 -57 -19 -19 -8 -34 -12 -34 -9 0 3 -9 0 -21 -6 -11 -6 -29 -13
-40 -16 -10 -2 -28 -6 -40 -9 -12 -2 -26 -8 -33 -13 -6 -4 -29 -14 -51 -21
-44 -13 -56 -18 -127 -50 -26 -12 -50 -21 -54 -21 -3 0 -31 -12 -62 -26 -180
-83 -248 -117 -253 -126 -3 -5 -9 -10 -12 -9 -15 1 -67 -22 -67 -29 0 -7 -29
-18 -47 -18 -3 0 -9 -4 -12 -9 -3 -5 -37 -27 -75 -49 -38 -21 -80 -47 -95 -57
-14 -9 -34 -20 -43 -23 -10 -4 -18 -10 -18 -15 0 -5 -6 -9 -13 -9 -8 0 -22 -9
-32 -20 -10 -11 -24 -20 -32 -20 -7 0 -16 -7 -19 -15 -4 -8 -11 -15 -16 -15
-13 0 -112 -70 -116 -82 -2 -4 -10 -8 -18 -8 -8 0 -14 -4 -14 -10 0 -5 -7 -10
-16 -10 -8 0 -12 -4 -9 -10 3 -5 0 -10 -7 -10 -7 0 -27 -13 -44 -28 -17 -15
-53 -45 -79 -67 -71 -60 -185 -178 -185 -192 0 -6 -6 -16 -14 -20 -7 -4 -23
-35 -35 -68 -27 -70 -39 -238 -20 -261 9 -11 9 -14 0 -14 -7 0 -10 -3 -8 -7 3
-5 8 -25 11 -45 3 -21 11 -57 17 -80 6 -24 13 -55 16 -71 3 -15 9 -30 14 -33
5 -3 9 -11 9 -19 0 -11 8 -35 26 -75 5 -12 16 -50 17 -57 0 -4 7 -14 14 -21 7
-8 11 -17 8 -22 -3 -5 -1 -10 4 -12 5 -1 11 -12 13 -23 1 -11 5 -22 8 -25 3
-3 14 -25 25 -50 11 -25 34 -71 52 -103 18 -33 33 -63 33 -68 0 -5 4 -9 8 -9
5 0 14 -16 22 -35 8 -19 17 -35 21 -35 6 0 11 -12 24 -62 2 -5 3 -12 4 -18 2
-16 20 -12 59 15 20 14 33 25 28 25 -5 0 2 10 15 23 13 12 42 44 64 71 22 28
69 81 105 119 36 38 64 73 62 78 -1 5 2 9 8 9 14 0 70 57 63 64 -4 3 -1 6 5 6
16 0 74 59 68 69 -3 5 0 8 8 7 7 0 38 22 67 49 30 28 70 62 89 76 19 15 44 36
55 46 12 11 25 22 30 24 6 2 44 26 85 54 89 59 276 155 302 155 10 0 18 5 18
12 0 6 3 8 7 5 3 -4 12 -2 20 4 7 6 13 9 13 6 0 -3 21 1 48 9 26 8 63 17 82
20 19 3 51 9 70 14 53 13 248 12 326 -1 38 -6 77 -11 87 -11 9 0 17 -3 17 -7
0 -8 108 -37 123 -33 4 1 7 -3 7 -8 0 -6 7 -10 16 -10 9 0 64 -24 122 -52 141
-71 142 -72 142 -80 0 -5 6 -8 13 -8 7 0 19 -9 27 -20 8 -11 18 -20 22 -20 10
0 68 -61 68 -71 0 -5 7 -9 15 -9 8 0 14 -3 13 -7 -2 -5 9 -24 25 -44 15 -20
27 -41 27 -47 0 -6 3 -12 8 -14 10 -4 55 -98 68 -143 51 -169 62 -269 51 -472
-3 -56 -8 -106 -10 -110 -3 -4 -8 -37 -12 -73 -9 -82 -11 -92 -18 -110 -3 -8
-9 -31 -12 -50 -3 -19 -10 -53 -15 -75 -6 -22 -13 -53 -16 -68 -3 -16 -12 -46
-19 -67 -7 -21 -11 -41 -8 -44 3 -3 1 -11 -5 -19 -10 -12 -17 -35 -29 -99 -3
-16 -10 -28 -15 -28 -5 0 -7 -4 -4 -8 3 -5 -1 -20 -8 -33 -7 -14 -12 -33 -10
-42 1 -9 -2 -17 -7 -17 -5 0 -8 -3 -7 -7 1 -5 -4 -21 -10 -36 -7 -16 -12 -35
-12 -43 0 -8 -4 -14 -10 -14 -5 0 -7 -7 -4 -15 4 -8 1 -15 -5 -15 -6 0 -11 -6
-11 -14 0 -11 -53 -145 -113 -286 -6 -14 -11 -27 -12 -30 -3 -10 -24 -56 -53
-120 -16 -36 -39 -87 -51 -115 -13 -27 -40 -85 -62 -127 -22 -43 -37 -78 -34
-78 4 0 -1 -7 -9 -16 -9 -8 -19 -27 -23 -42 -3 -15 -9 -29 -12 -32 -8 -6 -28
-52 -29 -64 0 -5 -6 -12 -13 -17 -7 -4 -14 -18 -16 -30 -2 -13 -7 -26 -11 -29
-4 -3 -27 -43 -51 -90 -24 -47 -56 -109 -72 -137 -43 -79 -89 -163 -113 -208
-11 -22 -23 -42 -26 -45 -3 -3 -20 -35 -39 -72 -19 -38 -39 -68 -43 -68 -5 0
-7 -4 -4 -9 3 -4 -3 -19 -14 -31 -11 -12 -17 -27 -14 -31 3 -5 1 -9 -4 -9 -5
0 -24 -28 -42 -62 -18 -35 -36 -65 -39 -68 -3 -3 -15 -23 -26 -45 -11 -22 -22
-42 -25 -45 -6 -6 -18 -26 -69 -115 -23 -38 -54 -92 -70 -120 -17 -27 -38 -65
-47 -83 -9 -17 -20 -32 -25 -32 -5 0 -9 -9 -9 -19 0 -11 -4 -21 -8 -23 -5 -1
-15 -15 -23 -30 -8 -15 -45 -79 -83 -143 -37 -64 -70 -125 -73 -135 -3 -11 -9
-20 -13 -20 -5 0 -13 -12 -19 -27 -7 -16 -25 -53 -40 -83 -16 -30 -27 -58 -24
-62 2 -5 -1 -8 -7 -8 -7 0 -10 -7 -6 -15 3 -8 2 -15 -2 -15 -8 0 -46 -125 -47
-155 0 -11 -3 -24 -6 -30 -22 -43 -16 -324 10 -437 5 -21 7 -38 4 -38 -3 0 0
-7 7 -15 7 -9 10 -18 7 -22 -4 -3 -2 -12 3 -18 6 -7 11 -24 12 -39 1 -14 7
-26 12 -26 5 0 7 -3 4 -6 -4 -3 0 -20 7 -39 8 -18 11 -35 8 -39 -4 -3 -1 -6 6
-6 7 0 9 -4 6 -10 -3 -5 -1 -10 4 -10 6 0 11 -8 11 -18 0 -10 3 -22 8 -26 4
-4 7 -11 7 -14 1 -4 16 -36 34 -72 19 -36 39 -75 45 -87 6 -13 14 -23 19 -23
4 0 7 -6 7 -13 0 -18 39 -59 50 -52 5 3 28 8 52 11 24 4 45 10 46 15 2 5 7 7
12 4 5 -3 32 0 60 6 28 6 59 12 68 14 9 2 17 4 17 5 0 2 14 5 60 13 77 15 91
18 155 32 51 11 69 15 93 19 15 3 35 7 45 10 9 3 28 7 42 10 14 2 59 12 100
21 95 21 103 23 170 36 65 12 85 17 85 19 0 2 42 9 75 13 14 1 30 5 35 9 6 3
28 7 50 9 22 2 42 7 45 11 3 4 26 9 50 12 25 2 45 5 45 6 0 2 9 4 20 6 65 10
80 13 80 14 0 1 11 4 25 7 41 8 55 11 55 14 0 1 9 3 20 4 44 5 102 16 135 25
32 8 63 15 115 25 11 2 31 6 45 9 14 4 39 9 55 12 17 3 72 14 124 25 51 11
102 22 113 24 11 2 27 6 36 9 18 6 73 16 107 21 11 2 40 8 65 15 25 7 54 14
65 15 61 9 142 28 159 37 14 8 17 7 10 -4 -6 -11 -5 -11 9 1 9 7 17 11 17 8 0
-3 19 0 43 5 23 5 53 12 67 15 45 9 55 11 55 14 0 1 9 3 20 4 38 5 112 20 143
29 20 6 65 15 106 21 15 2 36 7 46 10 22 7 52 13 100 21 19 3 71 14 115 24 77
18 102 24 163 35 45 9 126 27 142 33 8 2 29 6 45 9 37 4 70 11 70 13 0 1 16 4
35 6 19 3 42 8 50 11 8 4 26 8 40 9 32 3 53 8 65 15 6 4 18 5 28 4 9 -2 17 0
17 5 0 4 10 6 23 6 12 -1 33 2 47 7 14 5 39 10 55 13 36 5 70 12 70 14 0 2 24
7 75 15 24 4 48 9 52 12 5 2 21 7 36 9 56 10 132 36 132 45 0 5 6 9 13 9 7 0
19 10 27 21 8 12 20 27 25 33 18 19 31 79 29 131 -1 44 -7 78 -30 185 -3 14
-7 36 -10 50 -3 14 -6 32 -8 40 -14 67 -24 120 -25 133 -1 5 -6 5 -12 1 -8 -5
-8 -1 0 13 6 11 7 23 4 27 -7 7 -8 10 -18 71 -3 22 -8 51 -11 65 -2 14 -6 36
-9 50 -23 125 -75 230 -114 230 -6 0 -11 4 -11 10 0 9 -120 7 -156 -3 -10 -3
-35 -8 -54 -11 -19 -3 -84 -15 -145 -26 -60 -12 -123 -23 -140 -26 -16 -3 -58
-12 -93 -20 -34 -7 -74 -16 -90 -19 -15 -3 -38 -7 -52 -11 -14 -3 -32 -7 -40
-8 -8 -2 -40 -8 -70 -14 -30 -7 -64 -14 -75 -16 -11 -2 -38 -9 -60 -15 -22 -6
-58 -13 -80 -17 -22 -3 -43 -8 -46 -10 -3 -2 -19 -6 -35 -8 -37 -7 -57 -12
-119 -26 -27 -6 -59 -13 -70 -16 -11 -2 -40 -8 -65 -14 -25 -5 -56 -12 -70
-14 -14 -2 -55 -11 -91 -20 -37 -8 -78 -17 -90 -20 -13 -2 -58 -12 -99 -22
-41 -9 -85 -18 -97 -19 -13 -1 -26 -5 -30 -8 -3 -4 -18 -7 -33 -7 -15 0 -30
-3 -33 -7 -4 -3 -17 -7 -29 -9 -21 -2 -32 -4 -98 -18 -14 -3 -36 -8 -50 -11
-14 -3 -36 -8 -50 -11 -14 -3 -33 -6 -42 -6 -10 1 -18 -3 -18 -7 0 -4 -12 -8
-27 -9 -29 -2 -78 -9 -78 -12 0 -1 -11 -3 -25 -6 -23 -4 -93 -18 -150 -29 -14
-3 -43 -10 -65 -15 -102 -23 -187 -39 -239 -45 -63 -6 -67 0 -35 50 10 17 24
42 30 57 6 16 14 28 19 28 4 0 13 14 20 31 7 17 18 36 24 42 21 22 58 87 49
87 -4 0 0 5 10 11 9 6 15 14 12 20 -4 5 -1 9 4 9 6 0 11 6 11 14 0 8 3 16 8
18 9 4 82 126 82 138 0 5 6 15 13 22 18 18 177 294 177 307 0 6 4 11 9 11 9 0
21 25 21 43 0 4 9 17 19 29 11 11 18 25 15 30 -3 4 -2 8 3 8 4 0 19 21 32 48
14 26 30 54 37 62 7 8 14 22 16 30 2 8 5 17 8 20 12 11 61 100 55 100 -4 0 1
7 9 16 9 8 14 20 11 25 -4 5 -3 9 2 9 14 0 65 108 57 121 -4 7 -3 9 3 6 6 -4
35 40 68 106 32 61 61 117 65 122 5 6 16 30 26 55 10 25 20 47 23 50 9 7 39
71 46 98 3 12 11 22 16 22 6 0 8 4 5 9 -3 4 1 17 9 27 8 10 15 27 15 37 0 9 3
17 8 17 4 0 13 15 21 33 8 17 30 66 49 107 19 41 35 81 35 88 0 6 4 12 9 12 4
0 8 4 8 10 0 5 11 34 25 64 37 80 48 110 47 119 -1 4 3 7 9 7 5 0 8 4 4 9 -3
5 -1 12 5 16 5 3 10 15 10 25 0 10 6 25 13 32 6 7 14 22 15 33 2 11 7 25 11
30 4 6 15 33 25 60 19 55 26 72 51 128 9 20 13 42 10 47 -3 6 -2 10 3 10 9 0
37 76 35 98 0 6 4 12 9 12 6 0 8 7 4 15 -3 8 -2 15 3 15 5 0 12 12 16 28 5 15
9 32 11 37 2 6 5 21 8 34 3 12 10 29 16 35 5 7 8 15 5 18 -3 3 2 21 10 41 8
21 13 37 10 37 -3 0 0 10 7 23 6 12 13 31 15 42 2 17 7 35 18 78 2 4 3 8 5 10
1 1 3 10 6 20 2 9 6 25 8 35 3 9 5 17 6 17 1 0 3 9 5 20 2 11 6 31 10 45 4 14
8 32 9 40 1 9 5 21 10 28 4 6 5 12 2 12 -3 0 -1 11 4 26 11 28 20 72 24 120 2
17 6 35 9 41 3 5 9 32 13 59 3 27 8 58 11 69 2 11 6 34 8 50 2 17 7 46 9 65 3
19 8 76 10 125 3 50 6 90 7 90 1 0 3 47 4 105 1 65 -2 110 -9 119 -8 11 -8 13
1 8 15 -9 13 94 -2 105 -6 5 -5 8 3 8 7 0 11 4 7 10 -3 5 -7 29 -9 52 -6 62
-16 130 -23 153 -4 11 -8 31 -9 45 -1 14 -2 25 -4 25 -1 0 -4 16 -7 35 -2 19
-9 39 -14 45 -5 5 -9 19 -9 31 0 13 -5 26 -10 29 -6 4 -8 11 -5 16 4 5 1 9 -4
9 -6 0 -10 3 -9 8 5 14 -43 132 -54 132 -6 0 -9 3 -5 6 27 27 -240 389 -272
369 -6 -3 -11 -3 -10 2 4 15 -13 43 -22 37 -5 -3 -9 2 -9 10 0 9 -4 16 -9 16
-5 0 -17 8 -27 18 -10 9 -49 40 -88 69 -39 29 -76 57 -83 63 -7 5 -16 10 -21
10 -4 0 -17 8 -28 18 -20 17 -34 26 -103 64 -20 11 -40 24 -46 29 -5 5 -17 9
-26 9 -10 0 -19 5 -21 11 -2 5 -10 11 -18 13 -8 2 -35 12 -60 24 -74 34 -150
62 -150 56 0 -4 -6 -2 -13 4 -7 6 -39 18 -70 26 -32 8 -61 17 -65 20 -5 3 -22
8 -38 11 -16 3 -42 9 -59 12 -16 4 -41 7 -55 7 -14 1 -27 4 -30 8 -3 4 -30 9
-60 12 -30 2 -55 5 -55 6 0 8 -394 19 -435 13z"/>
<path d="M2606 8813 c-2 -2 -30 -6 -62 -8 -74 -6 -111 -12 -171 -26 -27 -6
-58 -13 -69 -15 -29 -5 -153 -43 -179 -53 -41 -17 -70 -28 -80 -31 -5 -1 -22
-11 -37 -21 -14 -10 -33 -19 -42 -19 -9 0 -19 -7 -22 -15 -4 -8 -13 -15 -20
-15 -8 0 -17 -7 -20 -15 -4 -8 -12 -15 -20 -15 -8 0 -14 -4 -14 -10 0 -5 -6
-10 -12 -10 -7 0 -47 -36 -88 -79 -89 -94 -100 -107 -100 -121 0 -5 -4 -10
-10 -10 -5 0 -10 -6 -10 -14 0 -8 -3 -16 -7 -18 -14 -5 -62 -111 -72 -155 -12
-58 -3 -142 22 -203 5 -14 11 -31 13 -39 1 -8 9 -18 16 -22 7 -5 10 -9 6 -9
-10 0 50 -112 66 -125 7 -5 13 -14 13 -18 1 -5 10 -20 22 -33 12 -13 21 -26
21 -29 0 -6 28 -40 68 -82 17 -19 32 -39 32 -43 0 -5 8 -14 18 -19 9 -6 14
-11 9 -11 -4 0 7 -15 24 -32 17 -18 35 -32 40 -31 4 2 6 -3 4 -10 -3 -6 8 -26
23 -43 15 -18 43 -51 62 -74 19 -24 40 -48 45 -54 6 -6 26 -32 45 -56 47 -61
47 -62 73 -91 12 -14 33 -40 47 -59 14 -18 30 -38 35 -44 6 -6 28 -33 50 -61
22 -27 45 -55 50 -61 6 -7 19 -24 30 -40 11 -15 29 -38 40 -50 11 -12 27 -32
35 -44 15 -21 50 -66 81 -101 8 -10 24 -30 35 -45 10 -15 26 -34 34 -44 12
-13 79 -98 125 -158 5 -8 20 -25 33 -38 12 -14 22 -28 22 -32 0 -4 16 -25 35
-47 40 -46 40 -46 80 -100 17 -22 33 -41 38 -43 4 -2 7 -10 7 -18 0 -8 7 -14
16 -14 8 0 12 -4 9 -10 -3 -5 -2 -10 2 -10 5 0 16 -12 25 -27 9 -16 29 -42 45
-60 15 -17 35 -41 43 -53 8 -12 57 -76 108 -143 51 -67 152 -202 225 -301 72
-98 146 -195 162 -216 17 -20 37 -48 45 -60 8 -12 32 -44 53 -70 20 -26 37
-51 37 -54 0 -3 7 -14 15 -23 26 -29 95 -122 95 -127 0 -5 117 -165 145 -199
8 -9 15 -21 15 -25 0 -5 8 -17 18 -28 9 -10 41 -55 71 -99 30 -44 58 -81 63
-83 4 -2 8 -10 8 -18 0 -8 5 -14 10 -14 6 0 10 -7 10 -15 0 -8 4 -15 8 -15 5
0 15 -12 23 -27 8 -15 19 -35 26 -43 30 -38 84 -117 95 -140 7 -14 21 -32 30
-41 10 -9 18 -19 18 -23 0 -4 12 -23 26 -42 15 -19 23 -34 20 -34 -4 0 2 -10
14 -22 11 -12 26 -34 32 -50 7 -15 16 -28 20 -28 5 0 8 -7 8 -15 0 -8 5 -15
10 -15 6 0 10 -7 10 -15 0 -8 5 -15 10 -15 6 0 10 -7 10 -15 0 -8 5 -15 10
-15 6 0 10 -7 10 -15 0 -8 9 -24 20 -35 11 -11 21 -23 21 -27 4 -18 23 -53 30
-53 4 0 9 -10 13 -23 3 -12 15 -33 27 -45 18 -21 26 -37 28 -65 1 -5 5 -5 11
-2 6 3 10 -3 10 -14 0 -12 5 -21 10 -21 6 0 10 -7 10 -15 0 -8 5 -15 11 -15 5
0 8 -4 5 -9 -3 -5 1 -14 9 -21 8 -7 15 -16 15 -21 0 -5 20 -43 45 -85 39 -65
139 -266 188 -374 8 -19 32 -80 52 -135 20 -55 41 -109 46 -120 5 -11 11 -35
14 -54 3 -19 8 -38 11 -43 11 -17 12 -213 2 -225 -6 -7 -7 -21 -4 -30 4 -10 4
-15 1 -11 -4 3 -21 -9 -38 -28 -18 -18 -39 -35 -47 -36 -8 -2 -17 -6 -20 -10
-5 -7 -81 -20 -105 -19 -61 2 -83 5 -99 13 -14 8 -17 7 -11 -3 6 -8 4 -10 -6
-3 -16 9 -37 15 -59 15 -8 1 -31 7 -51 14 -20 8 -40 11 -43 7 -4 -3 -10 -1
-14 5 -4 6 -19 13 -32 15 -14 2 -29 6 -35 9 -5 3 -30 11 -55 18 -25 8 -58 18
-75 25 -16 6 -32 11 -35 11 -3 0 -11 4 -17 8 -7 5 -13 6 -13 3 0 -3 -16 2 -35
10 -19 8 -35 11 -35 8 0 -4 -7 -1 -15 6 -8 7 -15 9 -15 4 0 -4 -5 -3 -12 4 -7
7 -22 12 -34 12 -13 0 -26 5 -29 10 -3 6 -19 10 -36 10 -16 0 -29 5 -29 12 0
6 -3 9 -6 5 -4 -3 -19 0 -35 8 -16 9 -40 16 -54 17 -14 1 -25 6 -25 10 0 4 -3
7 -7 6 -5 -1 -26 4 -48 10 -22 6 -42 11 -45 10 -3 -1 -15 4 -28 11 -13 7 -32
14 -43 17 -10 2 -28 6 -39 8 -11 3 -26 8 -33 13 -6 4 -16 8 -22 8 -10 0 -188
58 -230 74 -52 20 -89 30 -96 25 -5 -3 -9 -1 -9 4 0 5 -15 13 -32 17 -18 4
-35 9 -38 10 -24 9 -116 38 -130 41 -3 0 -12 3 -20 7 -8 3 -40 13 -70 22 -30
9 -61 18 -67 20 -12 4 -75 -83 -99 -135 -6 -14 -18 -31 -27 -39 -9 -7 -14 -17
-11 -22 3 -5 0 -9 -6 -9 -6 0 -9 -4 -6 -9 4 -5 2 -11 -3 -13 -4 -1 -36 -46
-69 -98 -34 -52 -65 -99 -69 -105 -29 -34 -18 -65 23 -65 13 0 25 -4 28 -9 4
-5 29 -15 56 -22 28 -7 50 -16 50 -19 0 -4 6 -7 13 -7 6 0 93 -28 192 -62 160
-55 250 -85 265 -89 3 0 18 -5 33 -11 16 -6 32 -9 37 -6 5 3 10 1 12 -5 1 -5
15 -11 31 -12 15 -1 27 -6 27 -10 0 -4 11 -8 23 -8 13 0 27 -3 31 -7 3 -4 12
-8 19 -9 7 -1 46 -12 87 -24 41 -12 82 -24 90 -25 8 -2 17 -4 20 -6 3 -1 10
-3 15 -4 6 -1 23 -7 38 -13 15 -7 31 -11 35 -10 4 1 34 -7 67 -17 33 -10 69
-19 80 -21 11 -1 21 -3 23 -4 1 -2 5 -3 10 -5 4 -1 14 -4 22 -7 15 -6 87 -25
125 -33 11 -2 53 -13 94 -24 41 -11 77 -19 80 -19 3 1 13 -2 21 -5 33 -14 143
-38 148 -33 3 3 11 1 18 -4 6 -6 27 -12 46 -14 18 -1 43 -8 56 -15 17 -9 22
-9 22 1 0 9 3 9 10 -2 5 -8 10 -12 10 -9 0 3 28 -1 63 -8 34 -8 78 -16 97 -19
44 -6 75 -12 75 -14 0 -1 14 -3 31 -5 16 -2 48 -6 70 -10 21 -3 53 -8 69 -11
38 -5 83 -12 113 -18 12 -3 54 -8 92 -11 38 -3 78 -8 89 -10 69 -13 209 -19
436 -19 230 1 273 3 370 23 61 13 120 24 133 25 12 0 22 4 22 7 0 3 23 11 50
18 28 7 50 17 50 23 0 5 4 7 8 4 19 -12 207 103 243 148 9 12 28 34 42 50 14
17 24 33 21 38 -3 4 0 8 6 8 6 0 17 15 24 33 7 17 17 41 21 52 4 11 10 27 12
35 4 15 6 23 19 90 18 87 6 263 -26 380 -7 25 -14 56 -17 69 -2 14 -7 29 -11
35 -4 6 -7 13 -7 16 -2 22 -31 100 -37 100 -4 0 -8 8 -8 18 0 61 -386 803
-434 834 -6 4 -8 8 -3 8 7 0 -19 47 -33 60 -3 3 -14 22 -25 43 -11 20 -22 37
-26 37 -4 0 -9 9 -12 21 -3 12 -10 18 -16 14 -6 -3 -9 0 -5 8 3 8 -2 21 -10
30 -8 8 -12 17 -9 21 3 3 -2 8 -11 12 -9 3 -16 11 -16 16 0 6 -40 70 -90 144
-49 74 -90 139 -90 145 0 5 -4 7 -10 4 -5 -3 -10 -1 -10 5 0 14 -71 120 -80
120 -4 0 -13 14 -20 30 -7 17 -16 30 -20 30 -4 0 -11 10 -17 23 -9 19 -143
208 -173 244 -5 7 -10 17 -10 23 0 5 -4 10 -8 10 -5 0 -30 32 -55 72 -26 39
-47 67 -47 62 0 -5 -12 11 -27 36 -15 25 -35 52 -45 61 -10 9 -18 21 -18 26 0
5 -8 18 -17 29 -10 11 -34 42 -53 69 -39 57 -49 69 -71 94 -9 10 -31 40 -50
67 -37 55 -47 67 -71 95 -10 10 -18 24 -18 29 0 6 -4 10 -9 10 -5 0 -12 8 -15
18 -4 9 -19 31 -34 49 -52 60 -62 73 -62 83 0 6 -4 10 -10 10 -5 0 -10 6 -10
14 0 8 -4 16 -8 18 -4 2 -23 24 -42 51 -18 26 -37 47 -42 47 -4 0 -8 6 -8 13
0 7 -8 22 -18 33 -10 10 -33 40 -51 67 -19 26 -37 47 -40 47 -3 0 -17 18 -31
40 -13 22 -28 40 -32 40 -4 0 -8 7 -8 15 0 8 -4 15 -10 15 -5 0 -10 5 -10 10
0 6 -9 21 -21 33 -11 12 -35 42 -52 67 -17 25 -34 47 -37 50 -3 3 -20 25 -37
50 -17 25 -40 54 -50 65 -10 11 -22 28 -26 38 -3 9 -11 17 -16 17 -5 0 -13 10
-16 22 -4 11 -16 31 -27 42 -23 26 -144 191 -166 229 -9 15 -20 27 -24 27 -4
0 -8 7 -8 15 0 8 -4 15 -8 15 -5 0 -18 18 -31 40 -12 22 -26 40 -30 40 -5 0
-14 14 -21 30 -7 17 -16 30 -21 30 -5 0 -9 4 -9 10 0 8 -56 96 -70 110 -22 22
-58 79 -53 84 4 3 2 6 -3 6 -5 0 -23 23 -39 50 -16 28 -32 50 -36 50 -4 0 -10
11 -13 25 -4 14 -11 25 -16 25 -6 0 -10 4 -10 10 0 5 -17 38 -38 72 -67 109
-101 175 -95 182 4 3 2 6 -4 6 -10 0 -83 149 -83 170 0 5 -5 10 -11 10 -6 0
-9 6 -6 13 2 6 -2 28 -9 47 -21 59 -27 92 -29 163 -2 68 -1 70 39 113 23 24
52 46 66 48 14 2 36 8 50 14 36 13 241 4 257 -11 3 -4 17 -7 29 -7 13 0 49 -7
81 -16 32 -8 67 -17 78 -19 57 -12 281 -90 390 -136 11 -4 58 -22 105 -38 47
-16 110 -39 140 -51 30 -12 66 -25 80 -30 25 -9 131 -49 183 -69 15 -6 27 -7
27 -3 0 4 4 1 9 -6 4 -7 18 -14 29 -15 12 -1 22 -5 22 -10 0 -4 4 -6 9 -2 5 3
12 1 16 -5 4 -6 11 -8 16 -5 5 4 9 1 9 -5 0 -6 4 -9 8 -6 4 2 21 -1 37 -9 54
-24 88 -35 113 -37 6 -1 12 -4 12 -8 0 -4 21 -13 48 -20 26 -8 49 -16 52 -19
10 -12 78 -31 91 -26 13 5 72 87 79 110 2 6 10 15 19 22 9 7 13 13 9 13 -4 0
6 14 22 32 16 17 27 35 24 39 -2 4 6 15 18 23 12 9 19 16 15 16 -4 0 1 10 13
22 11 12 20 28 20 35 0 7 5 13 10 13 6 0 10 6 10 14 0 8 3 16 8 18 4 2 25 27
46 57 36 51 37 55 20 68 -10 7 -23 13 -28 13 -6 0 -33 11 -60 25 -27 13 -52
22 -57 19 -5 -3 -9 -1 -9 5 0 5 -22 17 -50 26 -27 9 -50 21 -50 26 0 6 -4 8
-9 4 -6 -3 -26 4 -46 15 -19 11 -40 20 -45 20 -5 0 -21 5 -37 12 -15 6 -30 12
-33 13 -3 1 -16 6 -30 12 -14 6 -45 19 -70 28 -25 9 -54 21 -65 25 -11 5 -42
16 -70 26 -27 10 -55 21 -61 26 -6 4 -14 5 -18 1 -4 -4 -10 -3 -14 2 -8 12
-152 65 -194 72 -16 3 -28 9 -28 14 0 5 -9 9 -20 9 -17 0 -42 8 -95 31 -11 5
-29 11 -40 12 -19 4 -28 7 -72 24 -22 8 -19 7 -73 22 -25 7 -75 23 -111 36
-51 17 -70 20 -79 12 -9 -9 -11 -9 -8 2 2 8 -6 16 -17 18 -11 3 -27 6 -35 9
-8 3 -16 5 -17 5 -2 0 -17 5 -35 10 -78 24 -144 41 -158 41 -8 1 -20 5 -27 10
-7 5 -17 7 -23 3 -5 -3 -10 -1 -10 5 0 7 -6 10 -14 7 -8 -3 -17 -3 -20 1 -7 6
-28 11 -61 14 -11 1 -24 5 -30 8 -5 4 -26 10 -45 14 -19 3 -46 9 -60 12 -14 3
-36 7 -50 10 -14 2 -32 7 -40 10 -8 3 -26 7 -40 9 -14 2 -54 10 -90 18 -36 8
-99 20 -140 27 -41 6 -86 14 -100 16 -75 13 -162 23 -250 30 -41 3 -78 8 -82
11 -5 2 -8 -2 -8 -9 0 -9 -3 -9 -8 -2 -4 6 -23 11 -43 12 -20 1 -50 4 -67 7
-17 3 -34 1 -37 -5 -4 -6 -13 -5 -25 2 -14 9 -22 9 -36 -3 -13 -10 -16 -10
-10 -1 7 11 -19 13 -138 11 -81 -2 -148 -4 -150 -6z"/>
</g>
</svg>
